<?xml version="1.0" encoding="UTF-8"?>
<!DOCTYPE svg PUBLIC "-//W3C//DTD SVG 1.1//EN" "http://www.w3.org/Graphics/SVG/1.1/DTD/svg11.dtd">
<svg xmlns="http://www.w3.org/2000/svg" version="1.1" width="139px" height="124px" style="shape-rendering:geometricPrecision; text-rendering:geometricPrecision; image-rendering:optimizeQuality; fill-rule:evenodd; clip-rule:evenodd" xmlns:xlink="http://www.w3.org/1999/xlink">
<g><path style="opacity:0.004" fill="#fefffe" d="M 39.5,-0.5 C 39.8333,-0.5 40.1667,-0.5 40.5,-0.5C 40.3147,0.170143 39.9813,0.170143 39.5,-0.5 Z"/></g>
<g><path style="opacity:0.004" fill="#fefffe" d="M 79.5,-0.5 C 79.8333,-0.5 80.1667,-0.5 80.5,-0.5C 80.3147,0.170143 79.9813,0.170143 79.5,-0.5 Z"/></g>
<g><path style="opacity:0.004" fill="#fefffe" d="M 33.5,2.5 C 34.8333,3.16667 34.8333,3.16667 33.5,2.5 Z"/></g>
<g><path style="opacity:0.004" fill="#fefffe" d="M 53.5,3.5 C 54.8333,4.16667 54.8333,4.16667 53.5,3.5 Z"/></g>
<g><path style="opacity:0.004" fill="#fefffe" d="M 67.5,3.5 C 68.8333,4.16667 68.8333,4.16667 67.5,3.5 Z"/></g>
<g><path style="opacity:0.004" fill="#fefffe" d="M 91.5,6.5 C 92.8333,7.16667 92.8333,7.16667 91.5,6.5 Z"/></g>
<g><path style="opacity:0.004" fill="#fefffe" d="M 12.5,7.5 C 13.8333,8.16667 13.8333,8.16667 12.5,7.5 Z"/></g>
<g><path style="opacity:0.004" fill="#fefffe" d="M 65.5,7.5 C 66.8333,8.16667 66.8333,8.16667 65.5,7.5 Z"/></g>
<g><path style="opacity:0.004" fill="#fefffe" d="M 107.5,7.5 C 108.833,8.16667 108.833,8.16667 107.5,7.5 Z"/></g>
<g><path style="opacity:0.004" fill="#fefffe" d="M 122.5,9.5 C 123.833,10.1667 123.833,10.1667 122.5,9.5 Z"/></g>
<g><path style="opacity:0.004" fill="#fefffe" d="M 133.5,11.5 C 134.833,12.1667 134.833,12.1667 133.5,11.5 Z"/></g>
<g><path style="opacity:0.004" fill="#fefffe" d="M 29.5,13.5 C 30.8333,14.1667 30.8333,14.1667 29.5,13.5 Z"/></g>
<g><path style="opacity:0.004" fill="#fefffe" d="M 15.5,14.5 C 16.8333,15.1667 16.8333,15.1667 15.5,14.5 Z"/></g>
<g><path style="opacity:0.004" fill="#fefffe" d="M 126.5,16.5 C 127.833,17.1667 127.833,17.1667 126.5,16.5 Z"/></g>
<g><path style="opacity:0.004" fill="#fefffe" d="M 13.5,19.5 C 14.8333,20.1667 14.8333,20.1667 13.5,19.5 Z"/></g>
<g><path style="opacity:0.004" fill="#fefffe" d="M 62.5,19.5 C 63.8333,20.1667 63.8333,20.1667 62.5,19.5 Z"/></g>
<g><path style="opacity:0.004" fill="#fefffe" d="M 111.5,19.5 C 112.833,20.1667 112.833,20.1667 111.5,19.5 Z"/></g>
<g><path style="opacity:0.004" fill="#fefffe" d="M 1.5,20.5 C 2.83333,21.1667 2.83333,21.1667 1.5,20.5 Z"/></g>
<g><path style="opacity:0.38" fill="#d0d0cf" d="M 68.5,26.5 C 66.4004,26.5228 64.5671,25.8561 63,24.5C 61.4329,25.8561 59.5996,26.5228 57.5,26.5C 59.1621,25.0154 60.9954,23.6821 63,22.5C 65.0046,23.6821 66.8379,25.0154 68.5,26.5 Z"/></g>
<g><path style="opacity:0.255" fill="#d7dfe3" d="M 14.5,26.5 C 28.6824,25.2464 43.0157,25.2464 57.5,26.5C 43.3553,26.6632 29.022,26.6632 14.5,26.5 Z"/></g>
<g><path style="opacity:0.268" fill="#d8e2e6" d="M 123.5,28.5 C 120.187,27.9552 116.854,27.4552 113.5,27C 98.3116,26.6349 83.3116,26.4682 68.5,26.5C 83.5808,25.443 98.9142,25.2763 114.5,26C 117.851,26.0572 120.851,26.8906 123.5,28.5 Z"/></g>
<g><path style="opacity:0.004" fill="#00fffe" d="M 126.5,27.5 C 127.833,28.1667 127.833,28.1667 126.5,27.5 Z"/></g>
<g><path style="opacity:1" fill="#778993" d="M 68.5,26.5 C 83.3116,26.4682 98.3116,26.6349 113.5,27C 116.854,27.4552 120.187,27.9552 123.5,28.5C 124.451,29.9187 124.784,31.5853 124.5,33.5C 123.272,34.3065 122.272,35.3065 121.5,36.5C 111.652,36.8271 101.986,36.4938 92.5,35.5C 83.757,33.4901 74.757,32.4901 65.5,32.5C 66.2625,31.7321 67.2625,31.2321 68.5,31C 67.3333,30.8333 66.1667,30.6667 65,30.5C 62.9919,30.3068 61.4919,30.9735 60.5,32.5C 54.9016,32.1557 49.5683,32.8224 44.5,34.5C 33.8184,34.3539 23.1518,34.6873 12.5,35.5C 10.1667,35.1667 7.83333,34.8333 5.5,34.5C 4.38809,33.7348 3.72142,32.7348 3.5,31.5C 6.72025,29.0599 10.3869,27.3933 14.5,26.5C 29.022,26.6632 43.3553,26.6632 57.5,26.5C 59.5996,26.5228 61.4329,25.8561 63,24.5C 64.5671,25.8561 66.4004,26.5228 68.5,26.5 Z"/></g>
<g><path style="opacity:1" fill="#70675f" d="M 65.5,32.5 C 65.5,34.8333 65.5,37.1667 65.5,39.5C 63.8333,39.5 62.1667,39.5 60.5,39.5C 60.5,39.1667 60.5,38.8333 60.5,38.5C 60.5,36.5 60.5,34.5 60.5,32.5C 61.4919,30.9735 62.9919,30.3068 65,30.5C 66.1667,30.6667 67.3333,30.8333 68.5,31C 67.2625,31.2321 66.2625,31.7321 65.5,32.5 Z"/></g>
<g><path style="opacity:0.392" fill="#d9d9dd" d="M 60.5,32.5 C 60.5,34.5 60.5,36.5 60.5,38.5C 60.1667,38.5 59.8333,38.5 59.5,38.5C 59.5,36.8333 59.5,35.1667 59.5,33.5C 54.5068,33.9157 49.5068,34.2491 44.5,34.5C 49.5683,32.8224 54.9016,32.1557 60.5,32.5 Z"/></g>
<g><path style="opacity:0.004" fill="#fefffe" d="M 56.5,34.5 C 57.8333,35.1667 57.8333,35.1667 56.5,34.5 Z"/></g>
<g><path style="opacity:0.647" fill="#bec5c6" d="M 65.5,32.5 C 74.757,32.4901 83.757,33.4901 92.5,35.5C 83.8273,34.9067 75.1607,34.2401 66.5,33.5C 66.5,35.5 66.5,37.5 66.5,39.5C 66.1667,39.5 65.8333,39.5 65.5,39.5C 65.5,37.1667 65.5,34.8333 65.5,32.5 Z"/></g>
<g><path style="opacity:0.933" fill="#eae48b" d="M 134.5,36.5 C 134.5,35.5 134.5,34.5 134.5,33.5C 132.143,33.3367 129.81,33.5034 127.5,34C 125.296,36.5945 122.63,38.4278 119.5,39.5C 120.167,38.5 120.833,37.5 121.5,36.5C 122.272,35.3065 123.272,34.3065 124.5,33.5C 128.099,32.6561 131.766,32.3227 135.5,32.5C 135.768,34.099 135.434,35.4324 134.5,36.5 Z"/></g>
<g><path style="opacity:0.729" fill="#abb5bb" d="M 3.5,31.5 C 3.72142,32.7348 4.38809,33.7348 5.5,34.5C 7.83333,34.8333 10.1667,35.1667 12.5,35.5C 23.1518,34.6873 33.8184,34.3539 44.5,34.5C 31.3755,36.4382 18.0422,36.9382 4.5,36C 2.5339,34.6534 2.20056,33.1534 3.5,31.5 Z"/></g>
<g><path style="opacity:0.349" fill="#faf2ba" d="M 59.5,38.5 C 59.8333,38.5 60.1667,38.5 60.5,38.5C 60.5,38.8333 60.5,39.1667 60.5,39.5C 55.1667,39.5 49.8333,39.5 44.5,39.5C 44.369,38.7611 44.5357,38.0944 45,37.5C 49.7367,38.4692 54.57,38.8025 59.5,38.5 Z"/></g>
<g><path style="opacity:0.938" fill="#e3d670" d="M 40.5,40.5 C 41.5676,39.5655 42.901,39.2322 44.5,39.5C 49.8333,39.5 55.1667,39.5 60.5,39.5C 62.1667,39.5 63.8333,39.5 65.5,39.5C 65.8333,39.5 66.1667,39.5 66.5,39.5C 84.0701,42.137 101.737,42.137 119.5,39.5C 118.942,40.7899 117.942,41.6232 116.5,42C 109.167,42.1667 101.833,42.3333 94.5,42.5C 76.525,41.3942 58.525,40.7275 40.5,40.5 Z"/></g>
<g><path style="opacity:0.451" fill="#f1e89e" d="M 134.5,36.5 C 133.787,41.3237 132.12,45.657 129.5,49.5C 129.5,48.1667 129.5,46.8333 129.5,45.5C 131.313,42.5609 132.98,39.5609 134.5,36.5 Z"/></g>
<g><path style="opacity:1" fill="#cace60" d="M 39.5,40.5 C 38.828,41.2674 37.9947,41.9341 37,42.5C 36.2599,43.7494 36.4265,44.7494 37.5,45.5C 37.5,46.1667 37.5,46.8333 37.5,47.5C 34.6752,46.5221 33.3419,44.5221 33.5,41.5C 35.3792,40.6586 37.3792,40.3253 39.5,40.5 Z"/></g>
<g><path style="opacity:1" fill="#dbcd17" d="M 134.5,36.5 C 132.98,39.5609 131.313,42.5609 129.5,45.5C 128.596,46.209 128.263,47.209 128.5,48.5C 118.833,49.1667 109.167,49.8333 99.5,50.5C 108.265,48.5831 117.265,47.2498 126.5,46.5C 127.125,43.8154 128.125,41.3154 129.5,39C 129.167,38.5 128.833,38 128.5,37.5C 125.263,40.2523 121.929,42.7523 118.5,45C 103.167,45.3333 87.8333,45.6667 72.5,46C 72.8226,51.731 72.8226,57.5643 72.5,63.5C 71.5326,64.8062 70.1993,65.4729 68.5,65.5C 69.4416,61.5815 70.1082,57.5815 70.5,53.5C 71.4614,51.7354 71.7947,49.7354 71.5,47.5C 71.0269,46.0937 70.0269,45.427 68.5,45.5C 68.1583,44.6618 67.4916,44.3284 66.5,44.5C 63.3048,42.9704 59.8048,42.3037 56,42.5C 50.4802,42.78 44.9802,43.28 39.5,44C 38.5842,44.2784 37.9175,44.7784 37.5,45.5C 36.4265,44.7494 36.2599,43.7494 37,42.5C 37.9947,41.9341 38.828,41.2674 39.5,40.5C 39.8333,40.5 40.1667,40.5 40.5,40.5C 58.525,40.7275 76.525,41.3942 94.5,42.5C 101.833,42.3333 109.167,42.1667 116.5,42C 117.942,41.6232 118.942,40.7899 119.5,39.5C 122.63,38.4278 125.296,36.5945 127.5,34C 129.81,33.5034 132.143,33.3367 134.5,33.5C 134.5,34.5 134.5,35.5 134.5,36.5 Z"/></g>
<g><path style="opacity:1" fill="#f6e519" d="M 66.5,44.5 C 60.8236,44.3339 55.1569,44.5006 49.5,45C 46.6541,48.2583 46.9874,51.0917 50.5,53.5C 52.0474,58.2617 54.3807,62.595 57.5,66.5C 55.1088,64.452 52.4421,62.7854 49.5,61.5C 49.3259,63.861 48.9926,66.1944 48.5,68.5C 48.7148,70.1788 48.0481,71.1788 46.5,71.5C 47.7815,68.0641 47.7815,64.7307 46.5,61.5C 46.1667,61.5 45.8333,61.5 45.5,61.5C 44.7774,57.4346 42.7774,54.1013 39.5,51.5C 39.1667,50.5 38.5,49.8333 37.5,49.5C 37.5,48.8333 37.5,48.1667 37.5,47.5C 37.5,46.8333 37.5,46.1667 37.5,45.5C 37.9175,44.7784 38.5842,44.2784 39.5,44C 44.9802,43.28 50.4802,42.78 56,42.5C 59.8048,42.3037 63.3048,42.9704 66.5,44.5 Z"/></g>
<g><path style="opacity:1" fill="#d4df44" d="M 66.5,44.5 C 67.4916,44.3284 68.1583,44.6618 68.5,45.5C 62.31,45.1771 56.31,45.5104 50.5,46.5C 49.3054,46.8656 48.6387,47.699 48.5,49C 49.4138,50.4064 50.0805,51.9064 50.5,53.5C 46.9874,51.0917 46.6541,48.2583 49.5,45C 55.1569,44.5006 60.8236,44.3339 66.5,44.5 Z"/></g>
<g><path style="opacity:1" fill="#9bc77b" d="M 50.5,46.5 C 56.31,45.5104 62.31,45.1771 68.5,45.5C 70.0269,45.427 71.0269,46.0937 71.5,47.5C 64.557,46.5733 57.557,46.24 50.5,46.5 Z"/></g>
<g><path style="opacity:1" fill="#fde604" d="M 99.5,50.5 C 95.6116,51.7252 92.6116,54.0585 90.5,57.5C 87.9606,59.5448 86.1273,62.2115 85,65.5C 83.324,66.0611 81.9906,67.0611 81,68.5C 77.9729,66.9128 75.1396,65.2462 72.5,63.5C 72.8226,57.5643 72.8226,51.731 72.5,46C 87.8333,45.6667 103.167,45.3333 118.5,45C 121.929,42.7523 125.263,40.2523 128.5,37.5C 128.833,38 129.167,38.5 129.5,39C 128.125,41.3154 127.125,43.8154 126.5,46.5C 117.265,47.2498 108.265,48.5831 99.5,50.5 Z"/></g>
<g><path style="opacity:1" fill="#5facae" d="M 50.5,46.5 C 57.557,46.24 64.557,46.5733 71.5,47.5C 71.7947,49.7354 71.4614,51.7354 70.5,53.5C 70.5,51.8333 70.5,50.1667 70.5,48.5C 63.8407,48.0462 57.1741,47.7129 50.5,47.5C 51.1667,49.5 51.8333,51.5 52.5,53.5C 53.5,53.5 54.5,53.5 55.5,53.5C 55.9926,55.8056 56.3259,58.139 56.5,60.5C 54.7368,57.9804 52.7368,55.6471 50.5,53.5C 50.0805,51.9064 49.4138,50.4064 48.5,49C 48.6387,47.699 49.3054,46.8656 50.5,46.5 Z"/></g>
<g><path style="opacity:0.62" fill="#bce1ee" d="M 30.5,43.5 C 23.4302,50.9065 15.7636,57.5732 7.5,63.5C 13.9381,57.5635 20.2714,51.3968 26.5,45C 27.745,44.2086 29.0783,43.7086 30.5,43.5 Z"/></g>
<g><path style="opacity:1" fill="#d7c934" d="M 129.5,45.5 C 129.5,46.8333 129.5,48.1667 129.5,49.5C 118.777,50.4513 108.111,51.9513 97.5,54C 96.1772,54.8159 95.5106,55.9826 95.5,57.5C 94.1637,59.5082 92.8304,61.5082 91.5,63.5C 89.8333,65.5 88.1667,67.5 86.5,69.5C 86.5,68.5 86.5,67.5 86.5,66.5C 87.5612,63.3777 88.8946,60.3777 90.5,57.5C 92.6116,54.0585 95.6116,51.7252 99.5,50.5C 109.167,49.8333 118.833,49.1667 128.5,48.5C 128.263,47.209 128.596,46.209 129.5,45.5 Z"/></g>
<g><path style="opacity:0.122" fill="#faf6af" d="M 129.5,49.5 C 129.389,50.1174 129.056,50.6174 128.5,51C 120.141,51.8025 111.807,52.8025 103.5,54C 100.512,54.5019 97.8453,55.6686 95.5,57.5C 95.5106,55.9826 96.1772,54.8159 97.5,54C 108.111,51.9513 118.777,50.4513 129.5,49.5 Z"/></g>
<g><path style="opacity:1" fill="#51c0f1" d="M 37.5,49.5 C 38.5,49.8333 39.1667,50.5 39.5,51.5C 40.2833,55.6052 42.2833,58.9385 45.5,61.5C 45.8333,61.5 46.1667,61.5 46.5,61.5C 46.8064,64.3854 46.4731,67.0521 45.5,69.5C 43.8333,70.5 42.5,71.8333 41.5,73.5C 40.8333,73.5 40.1667,73.5 39.5,73.5C 28.4798,73.8321 17.4798,73.4988 6.5,72.5C 7.09826,71.2054 7.59826,69.8721 8,68.5C 15.674,60.4244 24.174,53.4244 33.5,47.5C 35.0729,47.7517 36.4062,48.4183 37.5,49.5 Z"/></g>
<g><path style="opacity:1" fill="#81bb9e" d="M 39.5,51.5 C 42.7774,54.1013 44.7774,57.4346 45.5,61.5C 42.2833,58.9385 40.2833,55.6052 39.5,51.5 Z"/></g>
<g><path style="opacity:1" fill="#50bef0" d="M 70.5,53.5 C 68.9748,56.7495 67.9748,60.2495 67.5,64C 64.8333,64.6667 62.1667,64.6667 59.5,64C 58.8366,62.4815 57.8366,61.3149 56.5,60.5C 56.3259,58.139 55.9926,55.8056 55.5,53.5C 54.5,53.5 53.5,53.5 52.5,53.5C 51.8333,51.5 51.1667,49.5 50.5,47.5C 57.1741,47.7129 63.8407,48.0462 70.5,48.5C 70.5,50.1667 70.5,51.8333 70.5,53.5 Z"/></g>
<g><path style="opacity:1" fill="#bfcf59" d="M 50.5,53.5 C 52.7368,55.6471 54.7368,57.9804 56.5,60.5C 56.2965,62.3904 56.9632,63.8904 58.5,65C 61.146,65.4974 63.8127,65.6641 66.5,65.5C 63.7131,66.4767 60.7131,66.81 57.5,66.5C 54.3807,62.595 52.0474,58.2617 50.5,53.5 Z"/></g>
<g><path style="opacity:1" fill="#60adcc" d="M 33.5,41.5 C 33.3419,44.5221 34.6752,46.5221 37.5,47.5C 37.5,48.1667 37.5,48.8333 37.5,49.5C 36.4062,48.4183 35.0729,47.7517 33.5,47.5C 24.174,53.4244 15.674,60.4244 8,68.5C 7.59826,69.8721 7.09826,71.2054 6.5,72.5C 17.4798,73.4988 28.4798,73.8321 39.5,73.5C 39.5,73.8333 39.5,74.1667 39.5,74.5C 37.8333,74.5 36.1667,74.5 34.5,74.5C 24.1667,74.5 13.8333,74.5 3.5,74.5C 3.5,72.5 3.5,70.5 3.5,68.5C 4.07978,66.2512 5.41311,64.5846 7.5,63.5C 15.7636,57.5732 23.4302,50.9065 30.5,43.5C 31.2905,42.5987 32.2905,41.9321 33.5,41.5 Z"/></g>
<g><path style="opacity:1" fill="#74ae9a" d="M 70.5,53.5 C 70.1082,57.5815 69.4416,61.5815 68.5,65.5C 67.8333,65.5 67.1667,65.5 66.5,65.5C 63.8127,65.6641 61.146,65.4974 58.5,65C 56.9632,63.8904 56.2965,62.3904 56.5,60.5C 57.8366,61.3149 58.8366,62.4815 59.5,64C 62.1667,64.6667 64.8333,64.6667 67.5,64C 67.9748,60.2495 68.9748,56.7495 70.5,53.5 Z"/></g>
<g><path style="opacity:0.999" fill="#fbd813" d="M 90.5,57.5 C 88.8946,60.3777 87.5612,63.3777 86.5,66.5C 84.0646,67.2702 82.7313,68.9368 82.5,71.5C 80.8762,71.3601 79.7096,72.0267 79,73.5C 76.1386,72.0789 73.1386,71.0789 70,70.5C 68.636,71.6961 67.136,72.6961 65.5,73.5C 61.9429,73.412 58.6096,72.0787 55.5,69.5C 53.9991,70.7515 52.3325,71.7515 50.5,72.5C 49.8281,71.0508 49.1614,69.7175 48.5,68.5C 48.9926,66.1944 49.3259,63.861 49.5,61.5C 52.4421,62.7854 55.1088,64.452 57.5,66.5C 60.7131,66.81 63.7131,66.4767 66.5,65.5C 67.1667,65.5 67.8333,65.5 68.5,65.5C 70.1993,65.4729 71.5326,64.8062 72.5,63.5C 75.1396,65.2462 77.9729,66.9128 81,68.5C 81.9906,67.0611 83.324,66.0611 85,65.5C 86.1273,62.2115 87.9606,59.5448 90.5,57.5 Z"/></g>
<g><path style="opacity:0.004" fill="#fefffe" d="M 100.5,70.5 C 101.833,71.1667 101.833,71.1667 100.5,70.5 Z"/></g>
<g><path style="opacity:1" fill="#8bbb8d" d="M 45.5,69.5 C 45.2671,71.0618 44.6005,72.3951 43.5,73.5C 42.8333,73.5 42.1667,73.5 41.5,73.5C 42.5,71.8333 43.8333,70.5 45.5,69.5 Z"/></g>
<g><path style="opacity:0.004" fill="#fefffe" d="M 94.5,71.5 C 95.8333,72.1667 95.8333,72.1667 94.5,71.5 Z"/></g>
<g><path style="opacity:1" fill="#bfcc62" d="M 46.5,61.5 C 47.7815,64.7307 47.7815,68.0641 46.5,71.5C 46.0269,72.9063 45.0269,73.573 43.5,73.5C 44.6005,72.3951 45.2671,71.0618 45.5,69.5C 46.4731,67.0521 46.8064,64.3854 46.5,61.5 Z"/></g>
<g><path style="opacity:0.518" fill="#f4e5a5" d="M 91.5,63.5 C 89.3357,68.5003 86.669,73.167 83.5,77.5C 83.5569,76.391 83.8902,75.391 84.5,74.5C 85.4408,72.9505 86.1075,71.2838 86.5,69.5C 88.1667,67.5 89.8333,65.5 91.5,63.5 Z"/></g>
<g><path style="opacity:1" fill="#facd22" d="M 48.5,68.5 C 49.1614,69.7175 49.8281,71.0508 50.5,72.5C 52.3325,71.7515 53.9991,70.7515 55.5,69.5C 58.6096,72.0787 61.9429,73.412 65.5,73.5C 67.136,72.6961 68.636,71.6961 70,70.5C 73.1386,71.0789 76.1386,72.0789 79,73.5C 79.7096,72.0267 80.8762,71.3601 82.5,71.5C 80.8646,74.7818 78.3646,77.1152 75,78.5C 65.3788,77.4074 55.8788,77.4074 46.5,78.5C 45.8333,77.8333 45.1667,77.1667 44.5,76.5C 31.8833,77.4806 19.2167,77.8139 6.5,77.5C 6.5,77.1667 6.5,76.8333 6.5,76.5C 16.1724,76.6665 25.8391,76.4998 35.5,76C 37.0581,75.79 38.3915,75.29 39.5,74.5C 39.5,74.1667 39.5,73.8333 39.5,73.5C 40.1667,73.5 40.8333,73.5 41.5,73.5C 42.1667,73.5 42.8333,73.5 43.5,73.5C 45.0269,73.573 46.0269,72.9063 46.5,71.5C 48.0481,71.1788 48.7148,70.1788 48.5,68.5 Z"/></g>
<g><path style="opacity:1" fill="#9fc4a6" d="M 3.5,68.5 C 3.5,70.5 3.5,72.5 3.5,74.5C 13.8333,74.5 24.1667,74.5 34.5,74.5C 25.0144,75.4938 15.3478,75.8271 5.5,75.5C 4.83333,75.5 4.16667,75.5 3.5,75.5C 2.83333,75.5 2.16667,75.5 1.5,75.5C 1.40953,72.8478 2.07619,70.5145 3.5,68.5 Z"/></g>
<g><path style="opacity:1" fill="#d2c95b" d="M 34.5,74.5 C 36.1667,74.5 37.8333,74.5 39.5,74.5C 38.3915,75.29 37.0581,75.79 35.5,76C 25.8391,76.4998 16.1724,76.6665 6.5,76.5C 5.83333,76.5 5.5,76.1667 5.5,75.5C 15.3478,75.8271 25.0144,75.4938 34.5,74.5 Z"/></g>
<g><path style="opacity:0.004" fill="#fefffe" d="M 89.5,75.5 C 90.8333,76.1667 90.8333,76.1667 89.5,75.5 Z"/></g>
<g><path style="opacity:0.412" fill="#f3e6b3" d="M 1.5,75.5 C 2.16667,75.5 2.83333,75.5 3.5,75.5C 3.40452,78.6916 4.07118,81.6916 5.5,84.5C 3.02571,82.1024 1.69238,79.1024 1.5,75.5 Z"/></g>
<g><path style="opacity:0.004" fill="#fefffe" d="M 136.5,78.5 C 137.833,79.1667 137.833,79.1667 136.5,78.5 Z"/></g>
<g><path style="opacity:1" fill="#f8c22a" d="M 86.5,66.5 C 86.5,67.5 86.5,68.5 86.5,69.5C 86.1075,71.2838 85.4408,72.9505 84.5,74.5C 76.0978,81.0424 66.4311,85.2091 55.5,87C 41.4664,87.8421 27.4664,87.5088 13.5,86C 9.85292,84.1917 7.51959,81.3584 6.5,77.5C 19.2167,77.8139 31.8833,77.4806 44.5,76.5C 45.1667,77.1667 45.8333,77.8333 46.5,78.5C 55.8788,77.4074 65.3788,77.4074 75,78.5C 78.3646,77.1152 80.8646,74.7818 82.5,71.5C 82.7313,68.9368 84.0646,67.2702 86.5,66.5 Z"/></g>
<g><path style="opacity:0.267" fill="#efe2af" d="M 83.5,77.5 C 82.9202,79.7488 81.5869,81.4154 79.5,82.5C 80.0798,80.2512 81.4131,78.5846 83.5,77.5 Z"/></g>
<g><path style="opacity:0.004" fill="#fefffd" d="M 95.5,80.5 C 96.8333,81.1667 96.8333,81.1667 95.5,80.5 Z"/></g>
<g><path style="opacity:0.004" fill="#fefffe" d="M 88.5,81.5 C 89.8333,82.1667 89.8333,82.1667 88.5,81.5 Z"/></g>
<g><path style="opacity:0.004" fill="#fefffe" d="M 84.5,82.5 C 85.8333,83.1667 85.8333,83.1667 84.5,82.5 Z"/></g>
<g><path style="opacity:0.004" fill="#fefffe" d="M 123.5,83.5 C 124.833,84.1667 124.833,84.1667 123.5,83.5 Z"/></g>
<g><path style="opacity:0.004" fill="#fefffe" d="M 125.5,85.5 C 126.833,86.1667 126.833,86.1667 125.5,85.5 Z"/></g>
<g><path style="opacity:0.004" fill="#fefffe" d="M 120.5,86.5 C 121.833,87.1667 121.833,87.1667 120.5,86.5 Z"/></g>
<g><path style="opacity:1" fill="#d6aa39" d="M 84.5,74.5 C 83.8902,75.391 83.5569,76.391 83.5,77.5C 81.4131,78.5846 80.0798,80.2512 79.5,82.5C 77.326,82.7497 75.6594,83.7497 74.5,85.5C 72.2143,85.595 70.2143,86.2616 68.5,87.5C 55.1241,89.7604 41.7908,91.0937 28.5,91.5C 26.5,91.5 24.5,91.5 22.5,91.5C 18.902,89.7823 14.902,88.6156 10.5,88C 9.21075,86.1978 7.54408,85.0312 5.5,84.5C 4.07118,81.6916 3.40452,78.6916 3.5,75.5C 4.16667,75.5 4.83333,75.5 5.5,75.5C 5.5,76.1667 5.83333,76.5 6.5,76.5C 6.5,76.8333 6.5,77.1667 6.5,77.5C 7.51959,81.3584 9.85292,84.1917 13.5,86C 27.4664,87.5088 41.4664,87.8421 55.5,87C 66.4311,85.2091 76.0978,81.0424 84.5,74.5 Z"/></g>
<g><path style="opacity:0.945" fill="#e6d2a1" d="M 5.5,84.5 C 7.54408,85.0312 9.21075,86.1978 10.5,88C 14.902,88.6156 18.902,89.7823 22.5,91.5C 22.3404,93.153 21.6737,94.4863 20.5,95.5C 20.33,94.1779 20.6634,93.0113 21.5,92C 17.5,91 13.5,90 9.5,89C 7.95862,87.6288 6.62529,86.1288 5.5,84.5 Z"/></g>
<g><path style="opacity:0.376" fill="#ecd59e" d="M 68.5,87.5 C 68.5,87.8333 68.5,88.1667 68.5,88.5C 67.209,88.2627 66.209,88.596 65.5,89.5C 52.9925,90.6315 40.6592,91.9649 28.5,93.5C 28.5,92.8333 28.5,92.1667 28.5,91.5C 41.7908,91.0937 55.1241,89.7604 68.5,87.5 Z"/></g>
<g><path style="opacity:0.004" fill="#fefffe" d="M 99.5,89.5 C 100.833,90.1667 100.833,90.1667 99.5,89.5 Z"/></g>
<g><path style="opacity:0.004" fill="#fefffe" d="M 107.5,90.5 C 108.833,91.1667 108.833,91.1667 107.5,90.5 Z"/></g>
<g><path style="opacity:0.286" fill="#e3d7c8" d="M 79.5,82.5 C 78.1999,83.8267 76.8665,85.16 75.5,86.5C 76.5771,88.7294 77.2437,91.0628 77.5,93.5C 75.7329,91.2084 74.7329,88.5418 74.5,85.5C 75.6594,83.7497 77.326,82.7497 79.5,82.5 Z"/></g>
<g><path style="opacity:0.004" fill="#00fffe" d="M 86.5,98.5 C 87.8333,99.1667 87.8333,99.1667 86.5,98.5 Z"/></g>
<g><path style="opacity:0.135" fill="#eae3e1" d="M 65.5,89.5 C 66.209,88.596 67.209,88.2627 68.5,88.5C 70.2791,92.5948 71.6124,96.9281 72.5,101.5C 56.9909,101.83 41.6576,101.496 26.5,100.5C 41.5037,100.667 56.5037,100.5 71.5,100C 70.1416,96.927 68.9749,93.7603 68,90.5C 67.3292,89.7476 66.4959,89.4142 65.5,89.5 Z"/></g>
<g><path style="opacity:0.561" fill="#cec8c5" d="M 77.5,93.5 C 78.5783,95.5394 79.5783,97.706 80.5,100C 85.6141,100.109 90.6141,100.776 95.5,102C 98.1445,104.95 98.1445,107.783 95.5,110.5C 95.7683,107.881 95.435,105.381 94.5,103C 89.4671,102.829 84.4671,102.329 79.5,101.5C 78.2147,98.9795 77.5481,96.3128 77.5,93.5 Z"/></g>
<g><path style="opacity:1" fill="#796763" d="M 74.5,85.5 C 74.7329,88.5418 75.7329,91.2084 77.5,93.5C 77.5481,96.3128 78.2147,98.9795 79.5,101.5C 84.4671,102.329 89.4671,102.829 94.5,103C 95.435,105.381 95.7683,107.881 95.5,110.5C 95.0825,111.222 94.4158,111.722 93.5,112C 67.4278,112.823 41.4278,112.657 15.5,111.5C 12.7177,110.067 9.71767,108.9 6.5,108C 2.1789,104.102 2.51223,100.935 7.5,98.5C 11.2053,101.072 15.2053,101.738 19.5,100.5C 20.3094,98.9291 20.6427,97.2624 20.5,95.5C 21.6737,94.4863 22.3404,93.153 22.5,91.5C 24.5,91.5 26.5,91.5 28.5,91.5C 28.5,92.1667 28.5,92.8333 28.5,93.5C 28.405,95.7857 27.7384,97.7857 26.5,99.5C 25.596,100.209 25.2627,101.209 25.5,102.5C 41.3422,102.83 57.0089,102.496 72.5,101.5C 71.6124,96.9281 70.2791,92.5948 68.5,88.5C 68.5,88.1667 68.5,87.8333 68.5,87.5C 70.2143,86.2616 72.2143,85.595 74.5,85.5 Z"/></g>
<g><path style="opacity:1" fill="#4d342e" d="M 75.5,100.5 C 76.8366,101.315 77.8366,102.482 78.5,104C 83.4889,104.499 88.4889,104.666 93.5,104.5C 93.5,105.833 93.5,107.167 93.5,108.5C 65.4725,108.92 37.4725,108.42 9.5,107C 6.78539,106.125 5.45206,104.292 5.5,101.5C 9.36295,102.346 13.1963,103.346 17,104.5C 19.0342,104.646 20.7009,103.98 22,102.5C 22.5,103 23,103.5 23.5,104C 40.5,104.667 57.5,104.667 74.5,104C 75.3366,102.989 75.67,101.822 75.5,100.5 Z"/></g>
<g><path style="opacity:0.661" fill="#b3a7a6" d="M 26.5,99.5 C 26.5,99.8333 26.5,100.167 26.5,100.5C 41.6576,101.496 56.9909,101.83 72.5,101.5C 57.0089,102.496 41.3422,102.83 25.5,102.5C 25.2627,101.209 25.596,100.209 26.5,99.5 Z"/></g>
<g><path style="opacity:0.263" fill="#d5cccc" d="M 20.5,95.5 C 20.6427,97.2624 20.3094,98.9291 19.5,100.5C 15.2053,101.738 11.2053,101.072 7.5,98.5C 2.51223,100.935 2.1789,104.102 6.5,108C 9.71767,108.9 12.7177,110.067 15.5,111.5C 10.1407,111.329 5.64073,109.329 2,105.5C 0.786914,100.928 2.45358,97.9277 7,96.5C 10.2056,98.101 13.5389,99.4344 17,100.5C 18.6229,99.079 19.7895,97.4124 20.5,95.5 Z"/></g>
<g><path style="opacity:0.004" fill="#fefffe" d="M 47.5,113.5 C 48.8333,114.167 48.8333,114.167 47.5,113.5 Z"/></g>
<g><path style="opacity:0.004" fill="#fefffe" d="M 13.5,114.5 C 14.8333,115.167 14.8333,115.167 13.5,114.5 Z"/></g>
<g><path style="opacity:0.004" fill="#fefffe" d="M 126.5,115.5 C 127.833,116.167 127.833,116.167 126.5,115.5 Z"/></g>
<g><path style="opacity:0.004" fill="#fefffe" d="M 15.5,116.5 C 16.8333,117.167 16.8333,117.167 15.5,116.5 Z"/></g>
<g><path style="opacity:0.004" fill="#fefffe" d="M 32.5,119.5 C 33.8333,120.167 33.8333,120.167 32.5,119.5 Z"/></g>
<g><path style="opacity:0.004" fill="#fefffe" d="M 94.5,119.5 C 95.8333,120.167 95.8333,120.167 94.5,119.5 Z"/></g>
</svg>
